<svg xmlns="http://www.w3.org/2000/svg" xmlns:xlink="http://www.w3.org/1999/xlink" width="340" height="340" viewBox="0 0 340 340">
    <defs>
        <path id="b" d="M0 300h300V0H0z"/>
        <filter id="a" filterUnits="objectBoundingBox">
            <feMorphology in="SourceAlpha" radius="5" result="shadowSpreadOuter1"/>
            <feOffset in="shadowSpreadOuter1" result="shadowOffsetOuter1"/>
            <feGaussianBlur in="shadowOffsetOuter1" result="shadowBlurOuter1" stdDeviation="15"/>
            <feColorMatrix in="shadowBlurOuter1" values="0 0 0 0 0 0 0 0 0 0 0 0 0 0 0 0 0 0 0.22 0"/>
        </filter>
    </defs>
    <g fill="none" fill-rule="evenodd">
        <g transform="translate(20 20)">
            <use fill="#000" filter="url(#a)" xlink:href="#b"/>
            <use fill="#FEFEFE" xlink:href="#b"/>
        </g>
        <path fill="#FEFEFE" d="M21 319h299V20H21z"/>
        <path fill="#F26E32" d="M95 53v2.14h-4.195V67h-2.593V55.14H84V53zM94.724 66.797V56.708h1.422c.246 0 .421.046.518.138.097.091.164.249.197.472l.145 1.219c.361-.623.782-1.114 1.264-1.475a2.66 2.66 0 0 1 1.626-.54c.498 0 .91.114 1.234.343l-.313 1.82c-.018.117-.062.201-.127.25a.426.426 0 0 1-.265.074c-.096 0-.23-.023-.401-.069a2.67 2.67 0 0 0-.676-.069c-.503 0-.934.14-1.292.418-.36.279-.663.687-.912 1.224v6.284h-2.42zM102.884 66.797h2.42V56.708h-2.42v10.09zm2.782-13.03c0 .211-.042.408-.126.591a1.652 1.652 0 0 1-.338.482 1.608 1.608 0 0 1-1.103.452 1.556 1.556 0 0 1-1.406-.934 1.436 1.436 0 0 1-.12-.591c0-.215.038-.418.12-.608.083-.19.191-.354.328-.492s.3-.247.485-.331a1.534 1.534 0 0 1 1.2 0c.19.084.354.193.496.331.14.138.252.302.338.492.084.19.126.393.126.608zM112.739 58.438c-.503 0-.932.107-1.288.32a3.7 3.7 0 0 0-.993.9v4.523c.274.34.572.579.895.713a2.69 2.69 0 0 0 1.043.202c.367 0 .699-.07.994-.207.298-.138.549-.347.755-.63.205-.281.364-.637.475-1.066.11-.43.166-.936.166-1.52 0-.59-.045-1.09-.142-1.499-.096-.41-.23-.742-.406-.998a1.601 1.601 0 0 0-.644-.56 1.982 1.982 0 0 0-.855-.178zm-4.702 11.653V56.708h1.48c.156 0 .29.036.4.108a.5.5 0 0 1 .216.334l.196.934a5.1 5.1 0 0 1 1.396-1.13c.526-.289 1.141-.433 1.848-.433.549 0 1.048.115 1.502.344.454.23.846.562 1.176.998.33.436.584.974.764 1.613.18.639.27 1.372.27 2.198 0 .753-.102 1.452-.303 2.094a5.167 5.167 0 0 1-.868 1.672c-.376.472-.828.84-1.362 1.106a3.95 3.95 0 0 1-1.788.398c-.568 0-1.05-.087-1.445-.26a3.509 3.509 0 0 1-1.06-.723v4.13h-2.422zM122.536 61.428h4.516l-1.725-4.73c-.079-.21-.165-.457-.258-.742a18.086 18.086 0 0 1-.281-.93 39.62 39.62 0 0 1-.268.935c-.09.288-.176.54-.261.757l-1.723 4.71zm9.168 5.369h-2.038a.888.888 0 0 1-.563-.172.978.978 0 0 1-.318-.428l-1.057-2.9h-5.867l-1.058 2.9a.947.947 0 0 1-.31.413.865.865 0 0 1-.564.187h-2.047l5.564-14.219h2.694l5.564 14.219zM136.876 65.017c.505 0 .931-.105 1.284-.315.352-.21.685-.508.999-.894v-4.524c-.274-.334-.573-.57-.895-.708a2.66 2.66 0 0 0-1.045-.206c-.365 0-.697.069-.992.206a1.95 1.95 0 0 0-.756.625c-.204.278-.364.632-.475 1.062-.111.43-.167.935-.167 1.519 0 .59.047 1.09.142 1.5.095.41.232.744.407 1.002.174.26.391.446.648.561.254.115.539.172.85.172zm3.225 1.78c-.315 0-.52-.148-.619-.443l-.194-.973c-.21.236-.43.449-.658.639-.229.19-.475.354-.74.492a3.862 3.862 0 0 1-1.836.432 3.315 3.315 0 0 1-1.509-.344 3.345 3.345 0 0 1-1.179-.998c-.333-.436-.586-.975-.766-1.617-.18-.643-.267-1.377-.267-2.203 0-.747.098-1.442.302-2.085.2-.642.493-1.2.872-1.671.378-.472.832-.841 1.361-1.107.53-.265 1.124-.398 1.783-.398.562 0 1.042.09 1.44.27.398.18.754.422 1.068.723v-5.33h2.42v14.613H140.1zM149.23 66.797h-2.195l-3.998-10.089h2.008c.177 0 .327.043.448.128.12.085.204.193.248.324l1.941 5.389c.11.315.202.623.28.924.074.302.141.603.2.905.057-.302.124-.603.2-.905.076-.301.172-.61.29-.924l1.987-5.389a.667.667 0 0 1 .246-.324.697.697 0 0 1 .42-.128h1.91l-3.985 10.089zM154.804 66.797h2.418V56.708h-2.418v10.09zm2.78-13.03c0 .211-.042.408-.127.591a1.582 1.582 0 0 1-.833.81c-.189.084-.391.124-.607.124-.209 0-.406-.04-.59-.124a1.536 1.536 0 0 1-.813-.81 1.501 1.501 0 0 1 0-1.2c.077-.19.19-.353.327-.491s.296-.247.485-.331a1.54 1.54 0 0 1 1.693.331c.14.138.253.302.338.492.085.19.127.393.127.608zM165.92 58.674a.644.644 0 0 1-.204.222.54.54 0 0 1-.275.064.862.862 0 0 1-.377-.099c-.134-.065-.289-.139-.465-.221a4.406 4.406 0 0 0-.603-.221 2.88 2.88 0 0 0-.8-.099c-.475 0-.85.102-1.124.305a.947.947 0 0 0-.412.797c0 .216.07.398.21.546.14.147.327.276.557.388.234.111.495.211.79.3.295.088.595.185.9.29.307.105.61.224.903.359.294.134.555.305.789.511.231.207.416.454.556.743.14.288.211.635.211 1.042 0 .485-.087.932-.264 1.342-.175.41-.433.764-.773 1.062-.34.298-.759.531-1.259.698-.5.167-1.072.251-1.719.251-.347 0-.685-.031-1.014-.093a5.92 5.92 0 0 1-.95-.261 5.25 5.25 0 0 1-.842-.393 4.023 4.023 0 0 1-.681-.492l.557-.924a.795.795 0 0 1 .256-.256.708.708 0 0 1 .372-.088c.15 0 .29.042.425.127.134.086.29.177.465.276.178.098.384.19.622.275.238.085.542.128.908.128.286 0 .534-.035.74-.103.205-.07.373-.16.507-.27a.999.999 0 0 0 .294-.39c.064-.147.095-.3.095-.456 0-.236-.07-.43-.21-.58a1.843 1.843 0 0 0-.56-.394 5.38 5.38 0 0 0-.793-.3 24.098 24.098 0 0 1-.91-.29 8.435 8.435 0 0 1-.913-.369c-.296-.14-.56-.32-.794-.536a2.425 2.425 0 0 1-.558-.796c-.14-.315-.21-.695-.21-1.14 0-.414.082-.807.246-1.18.161-.374.403-.7.72-.98a3.556 3.556 0 0 1 1.185-.668c.474-.167 1.02-.25 1.64-.25.691 0 1.323.114 1.891.344.567.23 1.04.53 1.42.904l-.55.875zM172.808 65.076c.835 0 1.454-.282 1.856-.845.401-.564.602-1.39.602-2.478 0-1.088-.2-1.918-.602-2.488-.402-.57-1.02-.856-1.856-.856-.85 0-1.476.287-1.881.86-.405.574-.606 1.402-.606 2.484 0 1.081.2 1.906.606 2.473.405.567 1.032.85 1.88.85m0-8.525c.752 0 1.432.121 2.043.364.61.242 1.13.587 1.562 1.032.433.446.764.99 1 1.633.235.642.352 1.36.352 2.153 0 .8-.117 1.52-.352 2.163a4.65 4.65 0 0 1-1 1.643c-.432.452-.951.8-1.562 1.042-.61.242-1.291.364-2.042.364-.752 0-1.434-.122-2.048-.364a4.378 4.378 0 0 1-1.572-1.042c-.433-.453-.77-1-1.01-1.643-.236-.642-.357-1.363-.357-2.163 0-.793.121-1.511.358-2.153a4.616 4.616 0 0 1 1.009-1.633c.434-.445.958-.79 1.572-1.032.614-.243 1.296-.364 2.048-.364M179.654 66.797V56.708h1.422c.246 0 .421.046.517.138.098.091.165.249.198.472l.145 1.219c.361-.623.782-1.114 1.264-1.475a2.66 2.66 0 0 1 1.626-.54c.498 0 .91.114 1.234.343l-.313 1.82c-.018.117-.062.201-.128.25a.426.426 0 0 1-.264.074c-.096 0-.23-.023-.402-.069a2.67 2.67 0 0 0-.676-.069c-.502 0-.933.14-1.291.418-.36.279-.663.687-.913 1.224v6.284h-2.42zM191.44 66.797V56.708h1.418c.248 0 .422.046.52.138.1.091.163.249.197.472l.145 1.219c.36-.623.78-1.114 1.266-1.475a2.646 2.646 0 0 1 1.626-.54c.496 0 .908.114 1.234.343l-.315 1.82c-.018.117-.062.201-.127.25a.425.425 0 0 1-.263.074c-.098 0-.232-.023-.402-.069a2.678 2.678 0 0 0-.676-.069c-.504 0-.934.14-1.295.418-.359.279-.662.687-.91 1.224v6.284h-2.418zM202.332 65.283c.249 0 .476-.023.686-.07.21-.043.405-.11.593-.202.184-.09.365-.202.539-.333.173-.133.347-.288.524-.47V62.52c-.706 0-1.295.044-1.769.134-.473.088-.853.203-1.14.34-.288.139-.492.3-.613.486-.12.185-.181.387-.181.605 0 .427.124.736.375.92.253.184.582.278.986.278zm4.702 1.514h-1.087c-.228 0-.408-.034-.539-.103-.13-.07-.228-.208-.295-.418l-.214-.718c-.255.23-.505.431-.75.605-.244.173-.497.32-.76.437a3.82 3.82 0 0 1-.831.266c-.296.059-.62.088-.982.088-.424 0-.816-.057-1.173-.172a2.566 2.566 0 0 1-.928-.518 2.387 2.387 0 0 1-.6-.858c-.146-.343-.216-.741-.216-1.195 0-.382.1-.757.299-1.13.199-.371.53-.706.992-1.006.466-.3 1.081-.547 1.853-.745.77-.197 1.726-.295 2.87-.295v-.595c0-.68-.141-1.183-.425-1.511-.286-.328-.698-.49-1.24-.49-.392 0-.718.046-.98.137a3.89 3.89 0 0 0-.682.31c-.19.115-.369.218-.532.31a1.085 1.085 0 0 1-.539.138.707.707 0 0 1-.423-.128 1.02 1.02 0 0 1-.282-.315l-.442-.777c1.157-1.062 2.551-1.593 4.184-1.593.586 0 1.112.097 1.57.29.463.194.853.463 1.171.807.322.344.565.755.732 1.234.165.478.25 1.003.25 1.573v6.372zM209.415 66.797V56.708h1.479c.313 0 .52.147.617.442l.168.797c.2-.21.415-.4.64-.57.225-.17.464-.318.715-.443.252-.124.52-.22.808-.285.29-.066.601-.098.94-.098.55 0 1.036.093 1.46.28.423.187.78.449 1.063.787.284.337.5.74.647 1.209.145.469.218.985.218 1.549v6.42h-2.418v-6.42c0-.616-.142-1.093-.426-1.431-.284-.338-.71-.506-1.278-.506-.418 0-.81.095-1.176.285-.364.19-.711.449-1.038.777v7.296h-2.42zM223.002 52.185v8.368h.449c.163 0 .29-.023.384-.07a1.01 1.01 0 0 0 .292-.255l2.5-3.097c.109-.131.226-.235.352-.31a.929.929 0 0 1 .488-.113h2.216l-3.125 3.746a4.583 4.583 0 0 1-.345.379 2.172 2.172 0 0 1-.382.3c.137.098.26.213.363.344.106.131.21.272.313.423l3.35 4.897h-2.184c-.188 0-.35-.033-.48-.098a.939.939 0 0 1-.351-.335l-2.558-3.825c-.097-.15-.195-.249-.294-.295-.098-.046-.245-.069-.44-.069h-.548v4.622h-2.42V52.185h2.42zM231.516 66.797h2.418V56.708h-2.418v10.09zm2.78-13.03c0 .211-.042.408-.127.591a1.582 1.582 0 0 1-.833.81 1.494 1.494 0 0 1-.609.124c-.207 0-.405-.04-.59-.124a1.537 1.537 0 0 1-.814-.81 1.526 1.526 0 0 1 0-1.2 1.56 1.56 0 0 1 .813-.822 1.548 1.548 0 0 1 1.695.331c.14.138.251.302.338.492.085.19.127.393.127.608zM236.666 66.797V56.708h1.48c.314 0 .52.147.618.442l.166.797c.201-.21.417-.4.64-.57a4.55 4.55 0 0 1 .716-.443c.251-.124.522-.22.81-.285.287-.066.599-.098.94-.098.548 0 1.033.093 1.46.28.422.187.778.449 1.062.787.284.337.5.74.645 1.209.147.469.22.985.22 1.549v6.42h-2.417v-6.42c0-.616-.144-1.093-.428-1.431-.284-.338-.709-.506-1.279-.506a2.5 2.5 0 0 0-1.173.285c-.366.19-.712.449-1.04.777v7.296h-2.42zM251.282 61.507c.302 0 .563-.041.782-.123a1.53 1.53 0 0 0 .555-.34c.147-.144.26-.318.331-.52.077-.204.116-.427.116-.67 0-.498-.15-.893-.447-1.184-.296-.292-.743-.438-1.337-.438-.595 0-1.04.146-1.338.438-.297.291-.445.686-.445 1.185 0 .236.037.455.114.658a1.4 1.4 0 0 0 .331.527c.147.147.335.262.557.344.227.082.487.123.78.123m2.655 5.713a.69.69 0 0 0-.174-.49 1.156 1.156 0 0 0-.482-.297c-.2-.07-.44-.123-.71-.156a6.854 6.854 0 0 0-.862-.05h-.94c-.324 0-.636-.037-.936-.109a2.21 2.21 0 0 0-.661.536c-.169.207-.25.444-.25.713 0 .177.044.343.134.497.085.154.225.287.42.398.192.111.442.198.75.26.306.063.683.094 1.125.094.45 0 .84-.036 1.168-.105.324-.07.594-.169.806-.292.212-.123.367-.27.465-.44.1-.173.147-.358.147-.56m-2.654-10.688c.432 0 .837.044 1.214.133.38.088.725.218 1.039.388h2.888v.905c0 .15-.038.269-.116.354-.078.085-.212.144-.402.177l-.9.167c.063.17.115.35.15.54.038.19.055.39.055.6 0 .499-.1.95-.297 1.353-.201.403-.475.745-.823 1.027a3.84 3.84 0 0 1-1.246.654c-.48.154-1 .231-1.562.231-.378 0-.748-.036-1.107-.108-.314.192-.47.407-.47.644 0 .205.093.356.279.45.186.096.432.163.734.204.304.04.649.06 1.034.06s.782.015 1.187.048.798.09 1.183.174c.386.082.73.211 1.034.388.305.177.548.42.735.726.186.305.279.699.279 1.179 0 .447-.11.881-.328 1.303-.22.42-.534.794-.95 1.124-.415.328-.923.593-1.524.793-.6.202-1.286.302-2.055.302-.766 0-1.429-.074-1.99-.222-.562-.147-1.027-.344-1.396-.59-.368-.245-.645-.529-.828-.85a1.998 1.998 0 0 1-.273-1.003c0-.472.142-.869.43-1.19.287-.321.685-.577 1.196-.767a1.68 1.68 0 0 1-.6-.55c-.15-.23-.223-.528-.223-.895 0-.151.025-.307.077-.468.054-.16.134-.32.24-.476.106-.158.243-.307.407-.448a2.85 2.85 0 0 1 .578-.378 3.175 3.175 0 0 1-1.2-1.102c-.291-.459-.436-.996-.436-1.612 0-.499.1-.95.298-1.352.2-.404.477-.748.833-1.033a3.832 3.832 0 0 1 1.262-.654 5.366 5.366 0 0 1 1.594-.226"/>
        <g fill="#949393">
            <path d="M81.012 265.4h3.543v1.583h-8.958V265.4h3.543v-12.252l-2.836 1.79-.869-1.446 4.229-2.684h1.348zM87.87 250.807h10.65v1.4l-7.543 14.776h-2.035l7.522-14.593H87.87zM103.16 261.912h5.508v-7.962l-5.508 7.962zm9.783 0v1.56h-2.423v3.51h-1.852v-3.51h-7.451v-1.422l7.77-11.243h1.533v11.105h2.423z"/>
        </g>
        <g fill="#949393">
            <path d="M230.74 257.231c.6.505 1.48.757 2.64.757 1.157 0 2.037-.252 2.64-.757.602-.504.902-1.23.902-2.18 0-.9-.3-1.606-.902-2.11-.603-.505-1.483-.757-2.64-.757-1.16 0-2.04.252-2.64.757-.603.504-.903 1.21-.903 2.11 0 .95.3 1.676.903 2.18m6.571 5.346c0-2.002-1.31-3.005-3.931-3.005-2.62 0-3.932 1.003-3.932 3.005 0 2.005 1.311 3.006 3.932 3.006 2.622 0 3.931-1.001 3.931-3.006m1.063-2.409c.526.705.788 1.546.788 2.524 0 1.393-.502 2.483-1.508 3.27-1.006.788-2.431 1.181-4.274 1.181-1.845 0-3.269-.393-4.275-1.181-1.005-.787-1.508-1.877-1.508-3.27 0-.993.266-1.842.8-2.547.534-.703 1.272-1.193 2.217-1.468-.808-.305-1.448-.789-1.92-1.446-.472-.657-.709-1.43-.709-2.317 0-1.314.475-2.36 1.429-3.132.952-.772 2.274-1.159 3.966-1.159 1.691 0 3.013.387 3.965 1.159s1.429 1.818 1.429 3.132c0 .887-.237 1.663-.709 2.329a3.92 3.92 0 0 1-1.897 1.434c.944.291 1.68.788 2.206 1.491M249.276 258.39c.663-.665.994-1.526.994-2.581 0-1.07-.331-1.939-.994-2.604-.663-.666-1.528-.998-2.594-.998-1.037 0-1.866.329-2.492.986-.625.657-.937 1.53-.937 2.616s.317 1.955.949 2.604c.631.65 1.466.975 2.502.975 1.052 0 1.91-.333 2.572-.998m1.828-5.725c1.06 1.362 1.59 3.304 1.59 5.828 0 2.739-.55 4.87-1.647 6.39-1.097 1.523-2.628 2.283-4.594 2.283a7.374 7.374 0 0 1-2.697-.516 7.029 7.029 0 0 1-2.333-1.48l.71-1.446c.763.643 1.489 1.113 2.183 1.412a5.304 5.304 0 0 0 2.114.447c1.386 0 2.46-.615 3.221-1.847.763-1.23 1.145-2.971 1.145-5.22v-.298a4.197 4.197 0 0 1-1.703 2.019c-.785.49-1.673.734-2.663.734-.976 0-1.843-.215-2.606-.642a4.517 4.517 0 0 1-1.782-1.813c-.426-.78-.64-1.675-.64-2.684 0-.993.222-1.888.662-2.685a4.716 4.716 0 0 1 1.852-1.858c.792-.444 1.683-.666 2.673-.666 1.952 0 3.456.682 4.515 2.042M263.64 263.954c.61-1.086.916-2.776.916-5.07 0-2.31-.302-3.996-.903-5.06-.603-1.063-1.551-1.594-2.846-1.594-1.282 0-2.227.536-2.836 1.606s-.913 2.753-.913 5.047c0 2.295.304 3.985.913 5.071.61 1.087 1.554 1.63 2.836 1.63 1.28 0 2.224-.543 2.833-1.63m-7.04 1.101c-.959-1.407-1.439-3.456-1.439-6.149 0-2.707.48-4.764 1.439-6.172.96-1.407 2.362-2.11 4.207-2.11 1.843 0 3.246.7 4.206 2.099.96 1.4 1.44 3.453 1.44 6.16 0 2.708-.48 4.765-1.44 6.172-.96 1.408-2.363 2.111-4.206 2.111-1.845 0-3.247-.703-4.207-2.11"/>
        </g>
        <path fill="#605B5B" d="M220.048 222.498h.875v9.243h-.98l.011-7.158-2.99 5.69h-.758l-3.003-5.638.012 7.106h-.991v-9.243h.888l3.487 6.7zM226.505 230.464c.335-.354.504-.812.504-1.37v-.38h-.236c-.768 0-1.349.032-1.75.098-.4.065-.686.175-.856.327-.17.153-.255.377-.255.676 0 .34.124.622.374.845.247.223.557.335.932.335.523 0 .952-.177 1.287-.531m.94-4.642c.395.415.595 1.048.595 1.895v4.025h-1.03v-1.088a1.89 1.89 0 0 1-.76.872c-.34.204-.731.308-1.175.308a2.56 2.56 0 0 1-1.129-.25 2.01 2.01 0 0 1-.816-.694 1.72 1.72 0 0 1-.302-.984c0-.48.123-.853.367-1.12.242-.268.644-.46 1.2-.577.559-.118 1.333-.177 2.325-.177h.29v-.433c0-.533-.112-.921-.329-1.16-.217-.241-.57-.361-1.058-.361-.731 0-1.46.226-2.181.682l-.353-.774c.33-.236.728-.426 1.197-.57a4.547 4.547 0 0 1 1.35-.216c.81 0 1.412.208 1.81.622M233.578 226.117l-.693.065c-.651.063-1.125.267-1.417.616-.292.35-.437.784-.437 1.298v3.645h-1.058v-6.385h1.033v1.115c.356-.743 1.057-1.159 2.101-1.246l.38-.026.09.918zM240.253 231.742h-1.371l-3.24-3.055v3.055h-1.059v-9.244h1.06v5.756l2.965-2.884h1.343l-3.159 3.055zM242.297 226.55c-.336.349-.534.844-.594 1.481h3.695c-.017-.647-.178-1.142-.482-1.488-.305-.346-.733-.518-1.282-.518-.555 0-1.002.176-1.337.525zm4.03 2.163h-4.652c.036.742.237 1.305.601 1.685.367.38.883.57 1.554.57.742 0 1.42-.252 2.04-.76l.35.773c-.279.262-.635.47-1.07.623-.436.152-.879.23-1.331.23-.994 0-1.775-.294-2.346-.879-.57-.585-.854-1.395-.854-2.426 0-.655.126-1.234.377-1.737a2.837 2.837 0 0 1 1.065-1.173c.458-.28.978-.42 1.562-.42.844 0 1.505.277 1.984.833.478.555.72 1.317.72 2.288v.393zM251.211 230.942l-.052.84c-.2.034-.418.052-.653.052-.766 0-1.344-.202-1.73-.603-.387-.402-.582-.962-.582-1.679v-3.356h-1.24v-.84h1.24v-1.94h1.058v1.94h1.803v.84h-1.803v3.278c0 1.004.462 1.508 1.383 1.508.194 0 .385-.014.576-.04M255.261 231.007l.353-.787c.34.272.686.466 1.038.584.351.118.751.177 1.195.177.47 0 .83-.08 1.076-.243a.783.783 0 0 0 .374-.701c0-.254-.083-.454-.25-.603-.163-.148-.439-.268-.823-.354l-1.07-.25c-.54-.12-.954-.33-1.241-.629a1.527 1.527 0 0 1-.43-1.101c0-.567.22-1.026.666-1.377.443-.349 1.037-.524 1.777-.524.442 0 .865.072 1.265.216.402.144.736.352 1.006.623l-.351.773c-.585-.498-1.223-.747-1.92-.747-.446 0-.792.085-1.039.256a.82.82 0 0 0-.372.714c0 .254.075.458.227.61.154.154.398.269.738.347l1.084.263c.594.14 1.032.352 1.32.635.288.286.432.654.432 1.108a1.58 1.58 0 0 1-.673 1.338c-.449.332-1.061.498-1.835.498-1.072 0-1.92-.275-2.547-.826M261.921 231.741h1.063v-6.385h-1.063v6.385zm-.103-7.958h1.286v-1.193h-1.286v1.193zM265.904 230.902h4.09v.84h-5.396v-.735l3.972-4.812h-3.842v-.839h5.12v.774zM272.678 226.55c-.336.349-.534.844-.594 1.481h3.695c-.017-.647-.178-1.142-.482-1.488-.305-.346-.733-.518-1.281-.518-.556 0-1.003.176-1.338.525zm4.03 2.163h-4.652c.036.742.237 1.305.601 1.685.367.38.883.57 1.554.57.742 0 1.42-.252 2.04-.76l.35.773c-.279.262-.634.47-1.07.623-.436.152-.879.23-1.331.23-.994 0-1.775-.294-2.346-.879-.57-.585-.854-1.395-.854-2.426 0-.655.126-1.234.377-1.737a2.837 2.837 0 0 1 1.065-1.173c.458-.28.978-.42 1.562-.42.844 0 1.505.277 1.984.833.478.555.72 1.317.72 2.288v.393zM61.129 222.498h.875v9.243h-.98l.012-7.158-2.991 5.69h-.758l-3.002-5.638.011 7.106h-.991v-9.243h.888l3.487 6.7zM67.586 230.464c.334-.354.504-.812.504-1.37v-.38h-.236c-.768 0-1.349.032-1.75.098-.4.065-.686.175-.856.327-.17.153-.255.377-.255.676 0 .34.124.622.374.845.247.223.557.335.932.335.523 0 .952-.177 1.287-.531m.94-4.642c.395.415.594 1.048.594 1.895v4.025h-1.03v-1.088a1.89 1.89 0 0 1-.759.872c-.34.204-.731.308-1.175.308a2.56 2.56 0 0 1-1.129-.25 2.01 2.01 0 0 1-.816-.694 1.72 1.72 0 0 1-.302-.984c0-.48.123-.853.367-1.12.242-.268.644-.46 1.2-.577.559-.118 1.333-.177 2.325-.177h.29v-.433c0-.533-.112-.921-.329-1.16-.217-.241-.57-.361-1.058-.361-.731 0-1.46.226-2.181.682l-.353-.774c.33-.236.728-.426 1.197-.57a4.547 4.547 0 0 1 1.35-.216c.81 0 1.412.208 1.81.622M74.659 226.117l-.693.065c-.651.063-1.125.267-1.417.616-.292.35-.437.784-.437 1.298v3.645h-1.058v-6.385h1.033v1.115c.356-.743 1.057-1.159 2.101-1.246l.38-.026.09.918zM81.334 231.742h-1.371l-3.24-3.055v3.055h-1.059v-9.244h1.06v5.756l2.964-2.884h1.344l-3.159 3.055zM83.378 226.55c-.336.349-.534.844-.594 1.481h3.695c-.017-.647-.178-1.142-.482-1.488-.305-.346-.733-.518-1.282-.518-.555 0-1.002.176-1.337.525zm4.03 2.163h-4.652c.036.742.237 1.305.601 1.685.367.38.883.57 1.554.57.742 0 1.42-.252 2.04-.76l.35.773c-.279.262-.635.47-1.07.623-.436.152-.879.23-1.331.23-.994 0-1.775-.294-2.346-.879-.57-.585-.854-1.395-.854-2.426 0-.655.126-1.234.377-1.737a2.837 2.837 0 0 1 1.065-1.173c.458-.28.978-.42 1.562-.42.844 0 1.505.277 1.984.833.478.555.72 1.317.72 2.288v.393zM92.292 230.942l-.052.84c-.2.034-.418.052-.653.052-.766 0-1.344-.202-1.73-.603-.387-.402-.582-.962-.582-1.679v-3.356h-1.24v-.84h1.24v-1.94h1.058v1.94h1.803v.84h-1.803v3.278c0 1.004.462 1.508 1.383 1.508.194 0 .385-.014.576-.04M100.338 226.117l-.692.065c-.652.063-1.125.267-1.418.616-.292.35-.437.784-.437 1.298v3.645h-1.058v-6.385h1.033v1.115c.356-.743 1.057-1.159 2.102-1.246l.378-.026.092.918zM104.746 230.464c.335-.354.505-.812.505-1.37v-.38h-.237c-.767 0-1.349.032-1.75.098-.4.065-.686.175-.856.327-.17.153-.254.377-.254.676 0 .34.124.622.374.845.246.223.556.335.932.335.522 0 .952-.177 1.286-.531m.94-4.642c.396.415.595 1.048.595 1.895v4.025h-1.03v-1.088a1.89 1.89 0 0 1-.76.872c-.339.204-.73.308-1.175.308a2.56 2.56 0 0 1-1.128-.25 2.01 2.01 0 0 1-.816-.694 1.72 1.72 0 0 1-.302-.984c0-.48.122-.853.367-1.12.242-.268.643-.46 1.2-.577.558-.118 1.332-.177 2.325-.177h.289v-.433c0-.533-.111-.921-.328-1.16-.218-.241-.57-.361-1.058-.361-.732 0-1.46.226-2.182.682l-.352-.774c.33-.236.728-.426 1.197-.57a4.547 4.547 0 0 1 1.35-.216c.81 0 1.412.208 1.809.622M113.699 227.73v4.011h-1.058v-3.946c0-.594-.116-1.026-.346-1.298-.23-.27-.6-.407-1.104-.407-.584 0-1.05.179-1.398.538-.347.359-.522.844-.522 1.455v3.658h-1.058v-6.385h1.045v1.049c.209-.393.501-.692.875-.898a2.623 2.623 0 0 1 1.28-.308c1.523 0 2.286.844 2.286 2.53M121.3 231.742h-1.37l-3.24-3.055v3.055h-1.06v-9.244h1.06v5.756l2.965-2.884h1.344l-3.16 3.055zM122.163 231.741h1.063v-6.385h-1.063v6.385zm-.105-7.958h1.286v-1.193h-1.286v1.193zM130.679 227.73v4.011h-1.058v-3.946c0-.594-.116-1.026-.346-1.298-.23-.27-.6-.407-1.104-.407-.584 0-1.05.179-1.397.538-.348.359-.523.844-.523 1.455v3.658h-1.058v-6.385h1.045v1.049c.21-.393.501-.692.875-.898a2.623 2.623 0 0 1 1.28-.308c1.524 0 2.286.844 2.286 2.53M136.727 230.057c.347-.406.522-.969.522-1.685 0-.708-.171-1.265-.516-1.671-.344-.407-.826-.61-1.443-.61-.619 0-1.104.203-1.457.61-.352.406-.529.963-.529 1.671 0 .716.177 1.279.53 1.685.352.406.837.61 1.456.61.609 0 1.087-.204 1.437-.61zm1.58-4.7v5.952c0 .952-.245 1.672-.731 2.157-.489.485-1.212.728-2.17.728-1.114 0-2.05-.289-2.807-.866l.351-.786c.428.28.828.48 1.203.603.374.12.792.183 1.253.183.61 0 1.072-.164 1.386-.491.312-.328.47-.807.47-1.436v-1.128a1.992 1.992 0 0 1-.842.944c-.38.218-.825.328-1.34.328-.558 0-1.05-.131-1.482-.393a2.652 2.652 0 0 1-1.005-1.115c-.24-.48-.36-1.035-.36-1.665 0-.63.12-1.185.36-1.665.238-.48.574-.852 1.005-1.114.431-.262.924-.394 1.483-.394.504 0 .943.11 1.319.328.374.218.656.53.849.931v-1.101h1.058z"/>
        <path fill="#CACAC9" d="M169.18 277.421h1.632v-58.964h-1.632z"/>
        <path fill="#231F20" d="M89.073 108.809h1.094v11.554h-1.224l.018-8.948-3.739 7.112h-.947l-3.755-7.047.016 8.883h-1.24v-11.554h1.108l4.36 8.374zM97.147 118.765c.418-.443.629-1.013.629-1.713v-.475h-.294c-.958 0-1.686.04-2.188.123-.5.082-.857.22-1.069.41-.212.191-.317.471-.317.843 0 .426.152.779.464 1.057.31.279.7.418 1.169.418.651 0 1.187-.22 1.606-.663m1.178-5.802c.493.52.74 1.308.74 2.368v5.031h-1.289v-1.36c-.207.47-.524.833-.947 1.09-.424.257-.914.385-1.471.385-.51 0-.981-.105-1.41-.311a2.503 2.503 0 0 1-1.021-.869 2.15 2.15 0 0 1-.374-1.229c0-.601.15-1.068.456-1.401.303-.333.806-.574 1.502-.721.697-.148 1.663-.222 2.906-.222h.359v-.54c0-.666-.136-1.15-.408-1.45-.271-.3-.714-.451-1.323-.451-.912 0-1.822.285-2.728.852l-.439-.967a5.212 5.212 0 0 1 1.494-.713 5.7 5.7 0 0 1 1.69-.27c1.012 0 1.765.26 2.263.778M105.987 113.332l-.864.082c-.816.077-1.407.332-1.771.77-.366.438-.547.978-.547 1.622v4.556h-1.325v-7.98h1.292v1.392c.447-.927 1.322-1.447 2.628-1.557l.474-.032.113 1.147zM114.33 120.362h-1.714l-4.05-3.818v3.818h-1.322v-11.554h1.323v7.195l3.706-3.605h1.683l-3.95 3.818zM116.886 113.873c-.42.437-.666 1.055-.743 1.852h4.62c-.022-.808-.223-1.43-.604-1.86-.382-.433-.914-.648-1.6-.648-.697 0-1.255.218-1.673.656zm5.037 2.704h-5.813c.043.93.294 1.63.75 2.106.459.475 1.107.713 1.944.713.924 0 1.775-.317 2.546-.95l.442.966c-.35.328-.795.587-1.337.779-.545.191-1.1.286-1.667.286-1.243 0-2.217-.365-2.93-1.098-.713-.73-1.07-1.742-1.07-3.032 0-.819.158-1.543.473-2.171a3.537 3.537 0 0 1 1.331-1.467c.571-.349 1.221-.524 1.951-.524 1.056 0 1.882.347 2.482 1.04.597.694.898 1.647.898 2.86v.492zM128.03 119.363l-.066 1.049c-.25.044-.523.066-.817.066-.958 0-1.678-.253-2.163-.754-.483-.504-.726-1.202-.726-2.098v-4.196h-1.553v-1.049h1.553v-2.425h1.322v2.425h2.253v1.05h-2.253v4.097c0 1.255.576 1.884 1.73 1.884.24 0 .48-.016.72-.049M138.085 113.332l-.864.082c-.816.077-1.407.332-1.771.77-.366.438-.547.978-.547 1.622v4.556h-1.324v-7.98h1.291v1.392c.448-.927 1.323-1.447 2.629-1.557l.473-.032.113 1.147zM143.595 118.765c.42-.443.629-1.013.629-1.713v-.475h-.294c-.957 0-1.687.04-2.188.123-.5.082-.857.22-1.068.41-.214.191-.318.471-.318.843 0 .426.153.779.465 1.057.309.279.699.418 1.168.418.653 0 1.188-.22 1.606-.663m1.177-5.802c.493.52.743 1.308.743 2.368v5.031h-1.291v-1.36c-.206.47-.523.833-.946 1.09-.426.257-.914.385-1.47.385-.512 0-.982-.105-1.411-.311a2.493 2.493 0 0 1-1.02-.869 2.14 2.14 0 0 1-.376-1.229c0-.601.152-1.068.455-1.401.306-.333.807-.574 1.502-.721.7-.148 1.666-.222 2.908-.222h.358v-.54c0-.666-.134-1.15-.408-1.45-.272-.3-.712-.451-1.321-.451-.915 0-1.824.285-2.728.852l-.441-.967a5.202 5.202 0 0 1 1.495-.713 5.692 5.692 0 0 1 1.69-.27c1.01 0 1.765.26 2.261.778M154.788 115.348v5.014h-1.324v-4.933c0-.742-.142-1.283-.431-1.622-.29-.338-.748-.508-1.38-.508-.73 0-1.313.224-1.747.672-.436.449-.655 1.055-.655 1.819v4.572h-1.32v-7.98h1.306v1.31a2.673 2.673 0 0 1 1.094-1.122c.468-.258 1-.385 1.6-.385 1.903 0 2.857 1.053 2.857 3.163M164.29 120.362h-1.716l-4.047-3.818v3.818h-1.322v-11.554h1.322v7.195l3.706-3.605h1.682l-3.951 3.818zM165.368 120.362h1.329v-7.981h-1.329v7.981zm-.131-9.948h1.606v-1.491h-1.606v1.491zM176.012 115.348v5.014h-1.324v-4.933c0-.742-.142-1.283-.43-1.622-.29-.338-.749-.508-1.38-.508-.73 0-1.313.224-1.747.672-.436.449-.655 1.055-.655 1.819v4.572h-1.32v-7.98h1.305v1.31a2.673 2.673 0 0 1 1.094-1.122c.469-.258 1-.385 1.6-.385 1.904 0 2.857 1.053 2.857 3.163M183.571 118.256c.436-.508.652-1.21.652-2.106 0-.885-.213-1.581-.644-2.09-.43-.507-1.03-.761-1.805-.761-.771 0-1.377.254-1.82.762-.44.508-.66 1.204-.66 2.09 0 .896.22 1.597.66 2.105.443.508 1.049.762 1.82.762.762 0 1.361-.254 1.797-.762zm1.976-5.875v7.44c0 1.192-.306 2.09-.916 2.696-.61.607-1.51.91-2.709.91-1.393 0-2.563-.36-3.508-1.082l.439-.983c.534.35 1.033.601 1.502.754.468.152.99.23 1.567.23.76 0 1.339-.206 1.73-.615.393-.41.588-1.008.588-1.795v-1.41a2.47 2.47 0 0 1-1.053 1.18c-.471.274-1.03.41-1.673.41-.697 0-1.314-.163-1.855-.491a3.32 3.32 0 0 1-1.255-1.393c-.3-.6-.45-1.295-.45-2.082 0-.786.15-1.48.45-2.081.3-.6.716-1.065 1.255-1.393.54-.328 1.158-.492 1.855-.492.63 0 1.182.136 1.649.41.467.274.821.662 1.06 1.164v-1.377h1.324zM197.744 118.592c.424-.524.635-1.266.635-2.228 0-.96-.21-1.713-.635-2.254-.426-.54-1.024-.811-1.798-.811-.772 0-1.368.262-1.786.787-.42.524-.629 1.273-.629 2.245 0 .972.21 1.724.629 2.253.418.53 1.014.795 1.786.795.774 0 1.372-.262 1.798-.787m.308-5.883c.534.35.949.839 1.241 1.467.294.627.44 1.357.44 2.188 0 .83-.146 1.553-.44 2.171-.292.618-.704 1.095-1.233 1.434-.527.34-1.146.508-1.851.508-.62 0-1.162-.136-1.626-.41a2.623 2.623 0 0 1-1.052-1.163v4.408h-1.324v-10.93h1.324v1.376c.239-.502.59-.89 1.052-1.164.464-.273 1.006-.41 1.626-.41.695 0 1.311.176 1.843.525M203.334 113.873c-.418.437-.667 1.055-.743 1.852h4.62c-.023-.808-.224-1.43-.602-1.86-.384-.433-.916-.648-1.602-.648-.695 0-1.254.218-1.673.656zm5.038 2.704h-5.814c.044.93.294 1.63.751 2.106.459.475 1.105.713 1.945.713.924 0 1.773-.317 2.545-.95l.442.966c-.35.328-.795.587-1.338.779-.546.191-1.1.286-1.666.286-1.242 0-2.219-.365-2.93-1.098-.714-.73-1.071-1.742-1.071-3.032 0-.819.16-1.543.475-2.171a3.545 3.545 0 0 1 1.329-1.467c.571-.349 1.22-.524 1.952-.524 1.055 0 1.881.347 2.48 1.04.6.694.9 1.647.9 2.86v.492zM214.82 113.332l-.864.082c-.816.077-1.41.332-1.773.77-.364.438-.545.978-.545 1.622v4.556h-1.325v-7.98h1.29v1.392c.448-.927 1.323-1.447 2.63-1.557l.472-.032.115 1.147zM217.237 119.969a3.379 3.379 0 0 1-1.33-1.434c-.313-.616-.468-1.34-.468-2.172 0-.83.162-1.558.482-2.188a3.581 3.581 0 0 1 1.355-1.466c.583-.35 1.265-.525 2.049-.525a4.47 4.47 0 0 1 1.567.287c.513.192.928.446 1.243.762l-.443.983c-.75-.61-1.512-.917-2.284-.917-.816 0-1.455.268-1.91.803-.459.536-.687 1.29-.687 2.261 0 .962.228 1.705.687 2.23.455.524 1.094.786 1.91.786.772 0 1.535-.305 2.284-.918l.443.983c-.338.318-.763.57-1.275.754a4.616 4.616 0 0 1-1.582.279c-.784 0-1.465-.169-2.041-.508M225.359 113.873c-.42.437-.667 1.055-.743 1.852h4.62c-.023-.808-.224-1.43-.604-1.86-.382-.433-.914-.648-1.6-.648-.697 0-1.256.218-1.673.656zm5.036 2.704h-5.812c.042.93.294 1.63.75 2.106.458.475 1.106.713 1.944.713.924 0 1.775-.317 2.545-.95l.443.966c-.35.328-.795.587-1.337.779-.546.191-1.1.286-1.667.286-1.243 0-2.218-.365-2.931-1.098-.712-.73-1.07-1.742-1.07-3.032 0-.819.159-1.543.474-2.171a3.537 3.537 0 0 1 1.33-1.467c.572-.349 1.222-.524 1.952-.524 1.056 0 1.882.347 2.481 1.04.598.694.898 1.647.898 2.86v.492zM239.195 115.348v5.014h-1.323v-4.933c0-.742-.144-1.283-.43-1.622-.291-.338-.75-.508-1.382-.508-.728 0-1.311.224-1.747.672-.434.449-.653 1.055-.653 1.819v4.572h-1.32v-7.98h1.304v1.31a2.677 2.677 0 0 1 1.095-1.122c.467-.258 1-.385 1.598-.385 1.906 0 2.858 1.053 2.858 3.163M245.824 119.363l-.065 1.049c-.25.044-.521.066-.817.066-.958 0-1.678-.253-2.163-.754-.485-.504-.728-1.202-.728-2.098v-4.196h-1.55v-1.049h1.55v-2.425h1.324v2.425h2.253v1.05h-2.253v4.097c0 1.255.578 1.884 1.732 1.884.239 0 .479-.016.717-.049M247.164 120.362h1.329v-7.981h-1.33v7.981zm-.131-9.948h1.606v-1.491h-1.606v1.491zM250.95 120.362h1.322v-11.554h-1.323zM256.363 113.873c-.421.437-.668 1.055-.743 1.852h4.62c-.022-.808-.223-1.43-.605-1.86-.38-.433-.915-.648-1.6-.648-.696 0-1.254.218-1.672.656zm5.035 2.704h-5.812c.044.93.295 1.63.75 2.106.458.475 1.106.713 1.944.713.924 0 1.774-.317 2.547-.95l.44.966c-.347.328-.793.587-1.337.779-.543.191-1.1.286-1.667.286-1.24 0-2.215-.365-2.93-1.098-.712-.73-1.068-1.742-1.068-3.032 0-.819.157-1.543.472-2.171a3.537 3.537 0 0 1 1.33-1.467c.573-.349 1.223-.524 1.951-.524 1.057 0 1.885.347 2.482 1.04.598.694.898 1.647.898 2.86v.492z"/>
        <path fill="#68A482" d="M142.669 154.565c1.183-1.188 1.774-2.725 1.774-4.61 0-1.91-.59-3.461-1.774-4.65-1.186-1.188-2.728-1.783-4.634-1.783-1.851 0-3.334.589-4.447 1.762-1.117 1.175-1.675 2.732-1.675 4.671 0 1.94.565 3.49 1.695 4.651 1.13 1.16 2.618 1.74 4.468 1.74 1.878 0 3.407-.593 4.593-1.78m3.265-10.224c1.89 2.432 2.836 5.9 2.836 10.407 0 4.89-.978 8.694-2.939 11.411-1.959 2.717-4.692 4.078-8.204 4.078-1.633 0-3.237-.308-4.816-.923a12.527 12.527 0 0 1-4.163-2.644l1.266-2.58c1.36 1.146 2.658 1.987 3.898 2.52a9.47 9.47 0 0 0 3.776.798c2.473 0 4.393-1.098 5.753-3.297 1.36-2.2 2.041-5.307 2.041-9.322v-.531a7.496 7.496 0 0 1-3.04 3.604c-1.402.875-2.986 1.312-4.754 1.312-1.744 0-3.295-.383-4.655-1.149a8.084 8.084 0 0 1-3.183-3.236c-.763-1.393-1.142-2.99-1.142-4.794 0-1.775.394-3.373 1.182-4.794a8.437 8.437 0 0 1 3.308-3.318c1.414-.792 3.006-1.189 4.774-1.189 3.482 0 6.17 1.216 8.062 3.647M171.097 157.596c.898 1.189 1.347 2.685 1.347 4.488 0 2.512-.851 4.492-2.55 5.94-1.702 1.448-4.007 2.17-6.92 2.17-1.85 0-3.632-.313-5.347-.94-1.714-.63-3.157-1.503-4.325-2.623l1.264-2.58c2.614 2.212 5.388 3.318 8.328 3.318 2.041 0 3.59-.457 4.652-1.373 1.062-.915 1.591-2.26 1.591-4.035 0-3.524-2.204-5.286-6.612-5.286h-3.304v-2.827h2.653c2.12 0 3.753-.472 4.898-1.414 1.141-.942 1.712-2.301 1.712-4.076 0-1.557-.463-2.752-1.387-3.586-.926-.832-2.245-1.249-3.96-1.249-2.775 0-5.495 1.107-8.163 3.32l-1.263-2.582c1.167-1.12 2.595-1.995 4.285-2.622a14.93 14.93 0 0 1 5.264-.944c2.612 0 4.687.663 6.225 1.988 1.537 1.326 2.306 3.107 2.306 5.347 0 1.667-.402 3.12-1.204 4.363-.803 1.244-1.925 2.137-3.368 2.684 1.687.492 2.98 1.331 3.878 2.52M207.281 166.283c.639-1.024.959-2.67.959-4.938 0-2.212-.327-3.837-.98-4.876-.653-1.037-1.646-1.555-2.98-1.555-1.332 0-2.32.518-2.958 1.555-.64 1.04-.96 2.664-.96 4.876 0 2.24.32 3.88.96 4.917.638 1.039 1.626 1.557 2.958 1.557 1.36 0 2.36-.512 3.001-1.536zm-8.103 1.68c-1.224-1.488-1.836-3.694-1.836-6.618 0-2.894.612-5.087 1.836-6.575 1.225-1.488 2.925-2.234 5.102-2.234 2.205 0 3.912.74 5.124 2.213 1.21 1.475 1.815 3.674 1.815 6.596 0 2.924-.605 5.13-1.815 6.618-1.212 1.49-2.92 2.232-5.124 2.232-2.177 0-3.877-.743-5.102-2.232zm-12 2.97l-2.408-1.394L201.79 140l2.409 1.393-17.02 29.54zm.47-16.512c.639-1.038.959-2.676.959-4.917 0-2.21-.32-3.836-.958-4.874-.64-1.039-1.626-1.558-2.96-1.558-1.333 0-2.327.52-2.98 1.558-.651 1.038-.98 2.663-.98 4.874 0 2.24.329 3.88.98 4.917.653 1.039 1.647 1.557 2.98 1.557 1.334 0 2.32-.518 2.96-1.557zm-8.061 1.7c-1.225-1.487-1.837-3.693-1.837-6.617 0-2.894.612-5.085 1.837-6.575 1.224-1.488 2.924-2.234 5.102-2.234 2.176 0 3.877.746 5.102 2.234 1.224 1.49 1.836 3.68 1.836 6.575 0 2.924-.612 5.13-1.836 6.618-1.225 1.488-2.926 2.234-5.102 2.234-2.178 0-3.878-.746-5.102-2.234z"/>
    </g>
</svg>
